<svg xmlns="http://www.w3.org/2000/svg" viewBox="59 68 282 133" role="img" aria-label="qst">
  <rect x="59" y="68" width="282" height="133" fill="#fbfbfb"/>
  <path fill="#9658ed" fill-rule="evenodd" d="M111.458 88.025 C 69.323 91.084,50.871 142.291,81.288 171.753 C 92.152 182.276,100.624 185.117,121.810 185.341 L 134.115 185.471 134.115 174.918 L 134.115 164.366 122.982 164.257 C 108.873 164.118,106.194 163.541,100.082 159.329 C 77.503 143.769,88.606 109.165,116.146 109.264 C 129.405 109.312,139.321 116.831,143.024 129.644 L 143.601 131.641 143.682 165.951 C 143.731 186.900,143.857 200.260,144.005 200.260 C 144.408 200.260,149.836 196.906,160.026 190.361 C 162.318 188.889,164.514 187.497,164.907 187.267 L 165.622 186.849 165.621 160.938 C 165.620 129.653,165.494 127.695,163.004 120.391 C 155.644 98.799,135.685 86.267,111.458 88.025 Z"/>
  <text x="178" y="187" fill="#301264" font-family="Arial, Helvetica, sans-serif" font-size="134" font-weight="900" font-style="italic">st</text>
</svg>
