<svg id="svg" version="1.1" width="400" height="266.6666666666667" viewBox="0 0 400 266.6666666666667" xmlns="http://www.w3.org/2000/svg" xmlns:xlink="http://www.w3.org/1999/xlink"><g id="svgg"><path id="path0" d="M292.958 72.090 C 290.171 74.213,284.844 78.297,281.120 81.165 L 274.349 86.379 274.277 122.551 C 274.198 161.991,274.175 161.275,275.672 165.755 C 278.995 175.698,287.411 182.850,298.704 185.326 C 300.355 185.689,303.074 185.770,316.605 185.863 L 332.558 185.973 332.490 175.994 L 332.422 166.016 318.229 165.885 C 304.336 165.758,304.010 165.743,302.808 165.188 C 301.086 164.392,299.095 162.438,298.246 160.710 L 297.526 159.245 297.437 151.042 C 297.388 146.530,297.431 137.419,297.533 130.794 L 297.718 118.750 315.135 118.750 L 332.552 118.750 332.552 108.594 L 332.552 98.438 315.204 98.438 L 297.857 98.438 297.956 83.333 C 298.010 75.026,298.048 68.229,298.041 68.229 C 298.033 68.229,295.746 69.967,292.958 72.090 M208.032 88.034 C 179.055 90.613,168.190 126.096,191.995 140.405 C 198.032 144.034,202.997 145.379,220.703 148.182 C 233.141 150.152,234.302 150.478,236.924 152.740 C 241.282 156.500,239.748 162.754,233.854 165.257 C 232.741 165.730,231.592 165.762,210.807 165.890 C 186.402 166.041,187.442 165.961,184.375 167.915 C 179.798 170.831,178.385 174.111,178.385 181.826 L 178.385 186.719 204.790 186.719 C 237.964 186.719,239.066 186.618,246.431 182.922 C 265.914 173.144,266.789 144.338,247.917 134.026 C 241.937 130.759,237.248 129.595,219.464 126.963 C 207.169 125.144,205.428 124.595,202.921 121.747 C 199.635 118.015,201.462 112.671,206.901 110.105 L 208.724 109.245 227.604 109.100 C 244.808 108.969,246.612 108.915,247.917 108.489 C 255.523 106.011,259.896 99.660,259.896 91.091 L 259.896 87.760 235.091 87.797 C 221.449 87.817,209.272 87.923,208.032 88.034 " stroke="none" fill="#301264" fill-rule="evenodd"></path><path id="path1" d="M0.000 133.333 L 0.000 266.667 200.000 266.667 L 400.000 266.667 400.000 133.333 L 400.000 0.000 200.000 0.000 L 0.000 0.000 0.000 133.333 M298.068 83.203 L 297.880 98.177 315.197 98.177 L 332.515 98.177 332.676 99.544 C 332.765 100.296,332.803 104.896,332.760 109.766 L 332.682 118.620 315.165 118.687 L 297.647 118.754 297.717 139.129 L 297.786 159.505 298.424 160.800 C 299.278 162.536,301.006 164.212,302.813 165.060 L 304.297 165.755 318.424 165.829 L 332.552 165.903 332.552 175.920 L 332.552 185.938 317.232 185.938 C 303.356 185.938,301.655 185.891,299.198 185.447 C 286.703 183.186,277.412 174.549,274.656 162.630 C 274.080 160.141,273.603 87.568,274.156 86.580 C 274.410 86.126,297.673 68.244,298.022 68.235 C 298.161 68.232,298.180 74.328,298.068 83.203 M122.173 88.033 C 143.951 90.236,160.443 105.352,164.920 127.214 C 165.435 129.726,165.457 130.821,165.550 158.363 L 165.646 186.908 164.008 187.948 C 163.107 188.520,161.081 189.807,159.505 190.808 C 148.546 197.773,144.123 200.521,143.869 200.521 C 143.803 200.521,143.749 185.726,143.748 167.643 C 143.747 140.165,143.685 134.352,143.367 132.246 C 139.985 109.809,112.009 101.245,95.833 117.695 C 82.053 131.709,87.510 155.318,106.168 162.403 C 110.287 163.968,111.686 164.118,123.372 164.252 L 134.115 164.375 134.123 165.391 C 134.128 165.949,134.131 169.746,134.131 173.828 C 134.131 177.910,134.128 182.196,134.123 183.353 L 134.115 185.456 121.680 185.350 C 106.635 185.220,104.011 184.866,96.762 181.991 C 68.241 170.677,57.200 134.846,74.345 109.245 C 82.726 96.729,95.381 89.410,111.198 87.929 C 113.395 87.723,119.702 87.783,122.173 88.033 M260.088 91.471 C 259.877 97.329,258.587 100.518,254.948 104.182 C 250.061 109.102,250.051 109.104,227.984 109.110 C 213.360 109.114,210.284 109.178,209.035 109.503 C 198.958 112.128,198.840 122.320,208.854 125.089 C 210.416 125.521,210.296 125.501,222.005 127.224 C 235.393 129.193,241.689 130.723,246.615 133.203 C 268.796 144.373,265.959 177.054,242.129 184.879 C 236.742 186.649,238.563 186.557,206.809 186.651 L 178.071 186.736 178.182 181.454 C 178.347 173.628,179.792 170.570,184.725 167.610 C 187.612 165.878,187.507 165.885,210.260 165.885 C 224.208 165.885,231.142 165.794,232.084 165.597 C 239.921 163.959,241.877 155.541,235.313 151.695 C 233.186 150.448,231.209 149.971,222.284 148.552 C 209.382 146.500,207.487 146.162,204.150 145.318 C 187.633 141.135,178.957 131.719,178.915 117.932 C 178.869 102.522,190.890 89.986,207.682 87.934 C 208.112 87.881,220.109 87.821,234.343 87.799 L 260.222 87.760 260.088 91.471 " stroke="none" fill="#fbfbfb" fill-rule="evenodd"></path><path id="path2" d="M111.458 88.025 C 69.323 91.084,50.871 142.291,81.288 171.753 C 92.152 182.276,100.624 185.117,121.810 185.341 L 134.115 185.471 134.115 174.918 L 134.115 164.366 122.982 164.257 C 108.873 164.118,106.194 163.541,100.082 159.329 C 77.503 143.769,88.606 109.165,116.146 109.264 C 129.405 109.312,139.321 116.831,143.024 129.644 L 143.601 131.641 143.682 165.951 C 143.731 186.900,143.857 200.260,144.005 200.260 C 144.408 200.260,149.836 196.906,160.026 190.361 C 162.318 188.889,164.514 187.497,164.907 187.267 L 165.622 186.849 165.621 160.938 C 165.620 129.653,165.494 127.695,163.004 120.391 C 155.644 98.799,135.685 86.267,111.458 88.025 " stroke="none" fill="#9658ed" fill-rule="evenodd"></path><path id="path3" d="M298.027 77.995 C 298.027 81.003,298.065 82.197,298.111 80.650 C 298.157 79.102,298.157 76.641,298.111 75.181 C 298.064 73.721,298.027 74.987,298.027 77.995 M208.919 87.940 C 209.170 88.005,209.580 88.005,209.831 87.940 C 210.081 87.874,209.876 87.821,209.375 87.821 C 208.874 87.821,208.669 87.874,208.919 87.940 M259.994 90.625 C 259.994 92.272,260.037 92.946,260.088 92.122 C 260.140 91.299,260.140 89.951,260.088 89.128 C 260.037 88.304,259.994 88.978,259.994 90.625 M274.033 97.786 C 274.035 98.503,274.085 98.765,274.145 98.369 C 274.205 97.973,274.203 97.387,274.142 97.067 C 274.080 96.746,274.031 97.070,274.033 97.786 M297.517 144.531 C 297.517 152.194,297.550 155.329,297.591 151.497 C 297.632 147.666,297.632 141.396,297.591 137.565 C 297.550 133.734,297.517 136.868,297.517 144.531 M253.385 137.842 C 253.385 137.887,253.766 138.268,254.232 138.688 L 255.078 139.453 254.313 138.607 C 253.600 137.818,253.385 137.641,253.385 137.842 M261.546 157.813 C 261.546 158.887,261.592 159.326,261.648 158.789 C 261.704 158.252,261.704 157.373,261.648 156.836 C 261.592 156.299,261.546 156.738,261.546 157.813 M178.233 182.031 C 178.233 184.681,178.272 185.765,178.319 184.440 C 178.366 183.115,178.366 180.947,178.319 179.622 C 178.272 178.298,178.233 179.382,178.233 182.031 " stroke="none" fill="#9e98a8" fill-rule="evenodd"></path><path id="path4" d="M297.991 84.505 C 297.993 85.221,298.044 85.483,298.104 85.088 C 298.163 84.692,298.162 84.106,298.100 83.785 C 298.038 83.465,297.989 83.789,297.991 84.505 M274.019 87.500 C 274.019 88.001,274.072 88.206,274.138 87.956 C 274.203 87.705,274.203 87.295,274.138 87.044 C 274.072 86.794,274.019 86.999,274.019 87.500 M112.569 87.947 C 112.965 88.007,113.550 88.006,113.871 87.944 C 114.191 87.882,113.867 87.833,113.151 87.835 C 112.435 87.837,112.173 87.887,112.569 87.947 M118.555 87.947 C 118.949 88.007,119.593 88.007,119.987 87.947 C 120.381 87.887,120.059 87.838,119.271 87.838 C 118.483 87.838,118.161 87.887,118.555 87.947 M274.064 92.578 C 274.064 94.870,274.104 95.772,274.152 94.584 C 274.201 93.396,274.200 91.521,274.152 90.417 C 274.103 89.314,274.063 90.286,274.064 92.578 M306.855 98.372 C 311.126 98.412,318.040 98.412,322.219 98.372 C 326.398 98.332,322.904 98.299,314.453 98.299 C 306.003 98.299,302.583 98.332,306.855 98.372 M274.084 128.255 C 274.084 144.440,274.115 151.023,274.154 142.884 C 274.192 134.744,274.192 121.502,274.154 113.457 C 274.115 105.411,274.084 112.070,274.084 128.255 M332.670 108.984 C 332.670 114.284,332.705 116.415,332.747 113.720 C 332.789 111.025,332.789 106.689,332.747 104.085 C 332.705 101.480,332.670 103.685,332.670 108.984 M151.563 101.953 C 152.485 102.884,153.299 103.646,153.370 103.646 C 153.442 103.646,152.746 102.884,151.823 101.953 C 150.900 101.022,150.087 100.260,150.015 100.260 C 149.943 100.260,150.640 101.022,151.563 101.953 M80.199 102.018 L 78.776 103.516 80.273 102.092 C 81.665 100.770,81.890 100.521,81.697 100.521 C 81.656 100.521,80.982 101.195,80.199 102.018 M95.819 117.383 L 94.922 118.359 95.898 117.462 C 96.436 116.968,96.875 116.529,96.875 116.485 C 96.875 116.287,96.655 116.474,95.819 117.383 M165.430 132.943 C 165.433 133.516,165.486 133.719,165.549 133.395 C 165.611 133.071,165.609 132.603,165.544 132.354 C 165.478 132.105,165.427 132.370,165.430 132.943 M66.244 136.198 C 66.244 137.845,66.287 138.519,66.338 137.695 C 66.390 136.872,66.390 135.524,66.338 134.701 C 66.287 133.877,66.244 134.551,66.244 136.198 M95.964 155.990 C 96.523 156.563,97.039 157.031,97.111 157.031 C 97.183 157.031,96.783 156.563,96.224 155.990 C 95.665 155.417,95.148 154.948,95.077 154.948 C 95.005 154.948,95.404 155.417,95.964 155.990 M80.339 171.094 C 81.333 172.096,82.206 172.917,82.278 172.917 C 82.349 172.917,81.594 172.096,80.599 171.094 C 79.604 170.091,78.731 169.271,78.660 169.271 C 78.588 169.271,79.344 170.091,80.339 171.094 M253.499 177.930 L 252.734 178.776 253.581 178.011 C 254.370 177.298,254.547 177.083,254.346 177.083 C 254.301 177.083,253.920 177.464,253.499 177.930 " stroke="none" fill="#c6a1f4" fill-rule="evenodd"></path></g></svg>